<svg width="202" height="13" viewBox="0 0 202 13" fill="none" xmlns="http://www.w3.org/2000/svg">
<path d="M3.648 12V2.912H0.064V0.799999H9.824V2.912H6.24V12H3.648ZM11.2186 12V0.799999H16.0666C17.0693 0.799999 17.9333 0.965333 18.6586 1.296C19.384 1.616 19.944 2.08 20.3386 2.688C20.7333 3.296 20.9306 4.02133 20.9306 4.864C20.9306 5.696 20.7333 6.416 20.3386 7.024C19.944 7.62133 19.384 8.08 18.6586 8.4C17.9333 8.72 17.0693 8.88 16.0666 8.88H12.6586L13.8106 7.744V12H11.2186ZM18.3386 12L15.5386 7.936H18.3066L21.1386 12H18.3386ZM13.8106 8.032L12.6586 6.816H15.9226C16.7226 6.816 17.32 6.64533 17.7146 6.304C18.1093 5.952 18.3066 5.472 18.3066 4.864C18.3066 4.24533 18.1093 3.76533 17.7146 3.424C17.32 3.08267 16.7226 2.912 15.9226 2.912H12.6586L13.8106 1.68V8.032ZM21.5122 12L26.5043 0.799999H29.0643L34.0723 12H31.3523L27.2563 2.112H28.2803L24.1683 12H21.5122ZM24.0082 9.6L24.6963 7.632H30.4563L31.1603 9.6H24.0082ZM35.2343 12V0.799999H37.3783L43.9863 8.864H42.9462V0.799999H45.5063V12H43.3783L36.7543 3.936H37.7943V12H35.2343ZM51.8361 12.192C50.9401 12.192 50.0815 12.0747 49.2601 11.84C48.4388 11.5947 47.7775 11.28 47.2761 10.896L48.1561 8.944C48.6361 9.28533 49.2015 9.568 49.8521 9.792C50.5135 10.0053 51.1801 10.112 51.8521 10.112C52.3641 10.112 52.7748 10.064 53.0841 9.968C53.4041 9.86133 53.6388 9.71733 53.7881 9.536C53.9375 9.35467 54.0121 9.14667 54.0121 8.912C54.0121 8.61333 53.8948 8.37867 53.6601 8.208C53.4255 8.02667 53.1161 7.88267 52.7321 7.776C52.3481 7.65867 51.9215 7.552 51.4521 7.456C50.9935 7.34933 50.5295 7.22133 50.0601 7.072C49.6015 6.92267 49.1801 6.73067 48.7961 6.496C48.4121 6.26133 48.0975 5.952 47.8521 5.568C47.6175 5.184 47.5001 4.69333 47.5001 4.096C47.5001 3.456 47.6708 2.87467 48.0121 2.352C48.3641 1.81867 48.8868 1.39733 49.5801 1.088C50.2841 0.768 51.1641 0.608 52.2201 0.608C52.9241 0.608 53.6175 0.693333 54.3001 0.863999C54.9828 1.024 55.5855 1.26933 56.1081 1.6L55.3081 3.568C54.7855 3.26933 54.2628 3.05067 53.7401 2.912C53.2175 2.76267 52.7055 2.688 52.2041 2.688C51.7028 2.688 51.2921 2.74667 50.9721 2.864C50.6521 2.98133 50.4228 3.136 50.2841 3.328C50.1455 3.50933 50.0761 3.72267 50.0761 3.968C50.0761 4.256 50.1935 4.49067 50.4281 4.672C50.6628 4.84267 50.9721 4.98133 51.3561 5.088C51.7401 5.19467 52.1615 5.30133 52.6201 5.408C53.0895 5.51467 53.5535 5.63733 54.0121 5.776C54.4815 5.91467 54.9081 6.10133 55.2921 6.336C55.6761 6.57067 55.9855 6.88 56.2201 7.264C56.4655 7.648 56.5881 8.13333 56.5881 8.72C56.5881 9.34933 56.4121 9.92533 56.0601 10.448C55.7081 10.9707 55.1801 11.392 54.4761 11.712C53.7828 12.032 52.9028 12.192 51.8361 12.192ZM58.3593 12V0.799999H63.8313C65.2393 0.799999 66.2953 1.06667 66.9993 1.6C67.7139 2.13333 68.0713 2.83733 68.0713 3.712C68.0713 4.29867 67.9273 4.81067 67.6393 5.248C67.3513 5.67467 66.9566 6.00533 66.4553 6.24C65.9539 6.47467 65.3779 6.592 64.7273 6.592L65.0312 5.936C65.7353 5.936 66.3593 6.05333 66.9033 6.288C67.4473 6.512 67.8686 6.848 68.1673 7.296C68.4766 7.744 68.6313 8.29333 68.6313 8.944C68.6313 9.904 68.2526 10.656 67.4953 11.2C66.7379 11.7333 65.6233 12 64.1513 12H58.3593ZM60.9353 10.048H63.9593C64.6313 10.048 65.1379 9.94133 65.4792 9.728C65.8313 9.504 66.0073 9.152 66.0073 8.672C66.0073 8.20267 65.8313 7.856 65.4792 7.632C65.1379 7.39733 64.6313 7.28 63.9593 7.28H60.7433V5.392H63.5113C64.1406 5.392 64.6206 5.28533 64.9513 5.072C65.2926 4.848 65.4633 4.512 65.4633 4.064C65.4633 3.62667 65.2926 3.30133 64.9513 3.088C64.6206 2.864 64.1406 2.752 63.5113 2.752H60.9353V10.048ZM69.1216 12L74.1136 0.799999H76.6736L81.6816 12H78.9616L74.8656 2.112H75.8896L71.7776 12H69.1216ZM71.6176 9.6L72.3056 7.632H78.0656L78.7696 9.6H71.6176ZM82.8436 12V0.799999H85.4356V12H82.8436ZM90.4136 9.44L90.2696 6.448L95.6296 0.799999H98.5096L93.6776 6L92.2376 7.536L90.4136 9.44ZM88.0936 12V0.799999H90.6696V12H88.0936ZM95.7576 12L91.7736 7.12L93.4696 5.28L98.7816 12H95.7576ZM97.9497 12L102.942 0.799999H105.502L110.51 12H107.79L103.694 2.112H104.718L100.606 12H97.9497ZM100.446 9.6L101.134 7.632H106.894L107.598 9.6H100.446ZM111.672 12V0.799999H114.264V9.888H119.88V12H111.672ZM128.179 12V2.912H124.595V0.799999H134.355V2.912H130.771V12H128.179ZM141.034 12.192C140.148 12.192 139.327 12.048 138.57 11.76C137.823 11.472 137.172 11.0667 136.618 10.544C136.074 10.0213 135.647 9.408 135.338 8.704C135.039 8 134.89 7.232 134.89 6.4C134.89 5.568 135.039 4.8 135.338 4.096C135.647 3.392 136.079 2.77867 136.634 2.256C137.188 1.73333 137.839 1.328 138.586 1.04C139.332 0.752 140.143 0.608 141.018 0.608C141.903 0.608 142.714 0.752 143.45 1.04C144.196 1.328 144.842 1.73333 145.386 2.256C145.94 2.77867 146.372 3.392 146.682 4.096C146.991 4.78933 147.146 5.55733 147.146 6.4C147.146 7.232 146.991 8.00533 146.682 8.72C146.372 9.424 145.94 10.0373 145.386 10.56C144.842 11.072 144.196 11.472 143.45 11.76C142.714 12.048 141.908 12.192 141.034 12.192ZM141.018 9.984C141.519 9.984 141.978 9.89867 142.394 9.728C142.82 9.55733 143.194 9.312 143.514 8.992C143.834 8.672 144.079 8.29333 144.25 7.856C144.431 7.41867 144.522 6.93333 144.522 6.4C144.522 5.86667 144.431 5.38133 144.25 4.944C144.079 4.50667 143.834 4.128 143.514 3.808C143.204 3.488 142.836 3.24267 142.41 3.072C141.983 2.90133 141.519 2.816 141.018 2.816C140.516 2.816 140.052 2.90133 139.626 3.072C139.21 3.24267 138.842 3.488 138.522 3.808C138.202 4.128 137.951 4.50667 137.77 4.944C137.599 5.38133 137.514 5.86667 137.514 6.4C137.514 6.92267 137.599 7.408 137.77 7.856C137.951 8.29333 138.196 8.672 138.506 8.992C138.826 9.312 139.199 9.55733 139.626 9.728C140.052 9.89867 140.516 9.984 141.018 9.984ZM154.07 12.192C152.48 12.192 151.238 11.7493 150.342 10.864C149.446 9.97867 148.998 8.71467 148.998 7.072V0.799999H151.59V6.976C151.59 8.04267 151.808 8.81067 152.246 9.28C152.683 9.74933 153.296 9.984 154.086 9.984C154.875 9.984 155.488 9.74933 155.926 9.28C156.363 8.81067 156.582 8.04267 156.582 6.976V0.799999H159.142V7.072C159.142 8.71467 158.694 9.97867 157.798 10.864C156.902 11.7493 155.659 12.192 154.07 12.192ZM161.703 12V0.799999H166.551C167.554 0.799999 168.418 0.965333 169.143 1.296C169.868 1.616 170.428 2.08 170.823 2.688C171.218 3.296 171.415 4.02133 171.415 4.864C171.415 5.696 171.218 6.416 170.823 7.024C170.428 7.62133 169.868 8.08 169.143 8.4C168.418 8.72 167.554 8.88 166.551 8.88H163.143L164.295 7.744V12H161.703ZM168.823 12L166.023 7.936H168.791L171.623 12H168.823ZM164.295 8.032L163.143 6.816H166.407C167.207 6.816 167.804 6.64533 168.199 6.304C168.594 5.952 168.791 5.472 168.791 4.864C168.791 4.24533 168.594 3.76533 168.199 3.424C167.804 3.08267 167.207 2.912 166.407 2.912H163.143L164.295 1.68V8.032ZM173.469 12V0.799999H176.061V12H173.469ZM182.399 12.192C181.503 12.192 180.644 12.0747 179.823 11.84C179.001 11.5947 178.34 11.28 177.839 10.896L178.719 8.944C179.199 9.28533 179.764 9.568 180.415 9.792C181.076 10.0053 181.743 10.112 182.415 10.112C182.927 10.112 183.337 10.064 183.647 9.968C183.967 9.86133 184.201 9.71733 184.351 9.536C184.5 9.35467 184.575 9.14667 184.575 8.912C184.575 8.61333 184.457 8.37867 184.223 8.208C183.988 8.02667 183.679 7.88267 183.295 7.776C182.911 7.65867 182.484 7.552 182.015 7.456C181.556 7.34933 181.092 7.22133 180.623 7.072C180.164 6.92267 179.743 6.73067 179.359 6.496C178.975 6.26133 178.66 5.952 178.415 5.568C178.18 5.184 178.063 4.69333 178.063 4.096C178.063 3.456 178.233 2.87467 178.575 2.352C178.927 1.81867 179.449 1.39733 180.143 1.088C180.847 0.768 181.727 0.608 182.783 0.608C183.487 0.608 184.18 0.693333 184.863 0.863999C185.545 1.024 186.148 1.26933 186.671 1.6L185.871 3.568C185.348 3.26933 184.825 3.05067 184.303 2.912C183.78 2.76267 183.268 2.688 182.767 2.688C182.265 2.688 181.855 2.74667 181.535 2.864C181.215 2.98133 180.985 3.136 180.847 3.328C180.708 3.50933 180.639 3.72267 180.639 3.968C180.639 4.256 180.756 4.49067 180.991 4.672C181.225 4.84267 181.535 4.98133 181.919 5.088C182.303 5.19467 182.724 5.30133 183.183 5.408C183.652 5.51467 184.116 5.63733 184.575 5.776C185.044 5.91467 185.471 6.10133 185.855 6.336C186.239 6.57067 186.548 6.88 186.783 7.264C187.028 7.648 187.151 8.13333 187.151 8.72C187.151 9.34933 186.975 9.92533 186.623 10.448C186.271 10.9707 185.743 11.392 185.039 11.712C184.345 12.032 183.465 12.192 182.399 12.192ZM188.922 12V0.799999H191.066L195.834 8.704H194.698L199.386 0.799999H201.514L201.546 12H199.114L199.098 4.528H199.546L195.802 10.816H194.634L190.81 4.528H191.354V12H188.922Z" fill="#63E6BE"/>
</svg>
