<svg width="66" height="12" viewBox="0 0 66 12" fill="none" xmlns="http://www.w3.org/2000/svg">
<path d="M3.648 12V2.912H0.064V0.799999H9.824V2.912H6.24V12H3.648ZM11.2186 12V0.799999H16.0666C17.0693 0.799999 17.9333 0.965333 18.6586 1.296C19.384 1.616 19.944 2.08 20.3386 2.688C20.7333 3.296 20.9306 4.02133 20.9306 4.864C20.9306 5.696 20.7333 6.416 20.3386 7.024C19.944 7.62133 19.384 8.08 18.6586 8.4C17.9333 8.72 17.0693 8.88 16.0666 8.88H12.6586L13.8106 7.744V12H11.2186ZM18.3386 12L15.5386 7.936H18.3066L21.1386 12H18.3386ZM13.8106 8.032L12.6586 6.816H15.9226C16.7226 6.816 17.32 6.64533 17.7146 6.304C18.1093 5.952 18.3066 5.472 18.3066 4.864C18.3066 4.24533 18.1093 3.76533 17.7146 3.424C17.32 3.08267 16.7226 2.912 15.9226 2.912H12.6586L13.8106 1.68V8.032ZM21.5122 12L26.5043 0.799999H29.0643L34.0723 12H31.3523L27.2563 2.112H28.2803L24.1683 12H21.5122ZM24.0082 9.6L24.6963 7.632H30.4563L31.1603 9.6H24.0082ZM37.9849 12L33.1529 0.799999H35.9529L40.1769 10.72H38.5289L42.8169 0.799999H45.3929L40.5449 12H37.9849ZM48.712 5.312H54.104V7.328H48.712V5.312ZM48.904 9.92H55V12H46.328V0.799999H54.792V2.88H48.904V9.92ZM57.0624 12V0.799999H59.6544V9.888H65.2704V12H57.0624Z" fill="#B197FC"/>
</svg>
